<?xml version="1.0" encoding="utf-8"?>
<!-- Generator: Adobe Illustrator 16.0.4, SVG Export Plug-In . SVG Version: 6.00 Build 0)  -->
<!DOCTYPE svg PUBLIC "-//W3C//DTD SVG 1.1//EN" "http://www.w3.org/Graphics/SVG/1.1/DTD/svg11.dtd">
<svg version="1.1" id="Layer_1" xmlns="http://www.w3.org/2000/svg" xmlns:xlink="http://www.w3.org/1999/xlink" x="0px" y="0px"
	 width="414.1px" height="428px" viewBox="0 0 414.1 428" enable-background="new 0 0 414.1 428" xml:space="preserve">
<g>
	<path fill="#FFFFFF" d="M20.2,177.2c0,0,37.2-48.6,146.9-14.9c0,0,90.3-28.8,138.9,8v169.1l-285.8,2.4V177.2L20.2,177.2z"/>
	<g>
		<path d="M284.1,186.9c-13.9-4.9-29.5-7.3-46.9-7.3c-22.2,0-42,8-54.5,14.6c-1.7,1-2.4,3.1-1.7,4.9c0.7,1.4,1.7,2.1,3.1,2.1
			c0.7,0,1,0,1.7-0.3c11.8-6.2,30.6-13.5,51.4-13.5c16.3,0,31.2,2.4,44.4,6.9c1.7,0.7,3.8-0.3,4.5-2.1
			C286.8,189.7,285.8,187.6,284.1,186.9z"/>
		<path d="M284.1,303.2c-13.9-4.9-29.5-7.3-46.9-7.3c-22.2,0-42,8-54.5,14.6c-1.7,1-2.4,3.1-1.4,4.9c0.7,1.4,1.7,2.1,3.1,2.1
			c0.7,0,1,0,1.7-0.3c11.8-6.2,30.6-13.5,51.4-13.5c16.3,0,31.2,2.4,44.4,6.9c1.7,0.7,3.8-0.3,4.5-2.1
			C286.8,306,285.8,303.9,284.1,303.2z"/>
		<path d="M284.1,216.1c-13.9-4.9-29.5-7.3-46.9-7.3c-22.2,0-42,8-54.5,14.6c-1.7,0.7-2.4,3.1-1.7,4.9c0.7,1.4,1.7,2.1,3.1,2.1
			c0.7,0,1,0,1.7-0.3c11.8-6.2,30.6-13.5,51.4-13.5c16.3,0,31.2,2.4,44.4,6.9c1.7,0.7,3.8-0.3,4.5-2.1
			C286.8,218.8,285.8,216.7,284.1,216.1z"/>
		<path d="M284.1,244.9c-13.9-4.9-29.5-7.3-46.9-7.3c-22.2,0-42,8-54.5,14.6c-1.7,1-2.4,3.1-1.4,4.9c0.7,1.4,1.7,2.1,3.1,2.1
			c0.7,0,1,0,1.7-0.3c11.8-6.2,30.6-13.5,51.4-13.5c16.3,0,31.2,2.4,44.4,6.9c1.7,0.7,3.8-0.3,4.5-2.1
			C286.8,247.7,285.8,245.6,284.1,244.9z"/>
		<path d="M284.1,274c-13.9-4.9-29.5-7.3-46.9-7.3c-22.2,0-42,8-54.5,14.6c-1.7,1-2.4,3.1-1.4,4.9c0.7,1.4,1.7,2.1,3.1,2.1
			c0.7,0,1,0,1.7-0.3c11.8-6.2,30.6-13.5,51.4-13.5c16.3,0,31.2,2.4,44.4,6.9c1.7,0.7,3.8-0.3,4.5-2.1
			C286.8,276.8,285.8,274.7,284.1,274z"/>
		<path d="M150,194.2c-12.5-6.6-32.3-14.6-54.5-14.6c-17.4,0-33,2.4-46.9,7.3c-1.7,0.7-2.8,2.8-2.1,4.5c0.7,1.7,2.8,2.8,4.5,2.1
			c13.2-4.5,28.1-6.9,44.4-6.9c20.8,0,39.2,7.3,51.4,13.5c0.7,0.3,1,0.3,1.7,0.3c1.4,0,2.4-0.7,3.1-2.1
			C152.5,197.3,151.8,195.2,150,194.2z"/>
		<path d="M150,310.5c-12.5-6.6-32.3-14.6-54.5-14.6c-17.4,0-33,2.4-46.9,7.3c-1.7,0.7-2.8,2.8-2.1,4.5s2.8,2.8,4.5,2.1
			c13.2-4.5,28.1-6.9,44.4-6.9c20.8,0,39.2,7.3,51.4,13.5c0.7,0.3,1,0.3,1.7,0.3c1.4,0,2.4-0.7,3.1-2.1
			C152.5,313.6,151.8,311.2,150,310.5z"/>
		<path d="M150,223.3c-12.5-6.6-32.3-14.6-54.5-14.6c-17.4,0-33,2.4-46.9,7.3c-1.7,0.7-2.8,2.8-2.1,4.5s2.8,2.8,4.5,2.1
			c13.2-4.5,28.1-6.9,44.4-6.9c20.8,0,39.2,7.3,51.4,13.5c0.7,0.3,1,0.3,1.7,0.3c1.4,0,2.4-0.7,3.1-2.1
			C152.5,226.5,151.8,224,150,223.3z"/>
		<path d="M150,252.2c-12.5-6.6-32.3-14.6-54.5-14.6c-17.4,0-33,2.4-46.9,7.3c-1.7,0.7-2.8,2.8-2.1,4.5s2.8,2.8,4.5,2.1
			c13.2-4.5,28.1-6.9,44.4-6.9c20.8,0,39.2,7.3,51.4,13.5c0.7,0.3,1,0.3,1.7,0.3c1.4,0,2.4-0.7,3.1-2.1
			C152.5,255.3,151.8,253.2,150,252.2z"/>
		<path d="M150,281.3c-12.5-6.6-32.3-14.6-54.5-14.6c-17.4,0-33,2.4-46.9,7.3c-1.7,0.7-2.8,2.8-2.1,4.5s2.8,2.8,4.5,2.1
			c13.2-4.5,28.1-6.9,44.4-6.9c20.8,0,39.2,7.3,51.4,13.5c0.7,0.3,1,0.3,1.7,0.3c1.4,0,2.4-0.7,3.1-2.1
			C152.5,284.5,151.8,282.4,150,281.3z"/>
		<path d="M400.7,178.9c0-8-8-5.9-11.8-3.8c-24,11.5-47.9,22.6-72.2,34v-31.2c0-3.1-10.8-12.2-10.8-12.2
			c-5.9-3.5-18.4-10.8-39.9-14.6c29.9-10.4,51.4-38.9,51.4-72.5c0-42.7-34.4-77.1-77.1-77.1c-37.2,0-68.1,26.4-75.3,61.5
			c-7.3-35.1-38.2-61.5-75.3-61.5C47,1.5,12.6,35.9,12.6,78.6c0,34,21.9,62.5,52.4,72.9c-20.5,3.8-32.6,10.8-38.2,14.2l-1,0.7
			c-1.7,1-12.2,8.7-12.2,11.8V341c0,3.1,2.4,5.6,5.6,5.6h109.7l-42,52.8c-5.6,7.3-4.5,17.7,2.8,23.6c7.3,5.6,17.7,4.5,23.6-2.8
			l52.4-66.3l52.4,66.3c5.6,7.3,16.3,8.3,23.6,2.8c7.3-5.6,8.3-16.3,2.8-23.6l-42-52.8h109.4c3.1,0,5.6-2.4,5.6-5.6v-44.1
			c24.3,11.5,48.6,22.6,72.9,34c1,0.7,10.8,6.6,11.1-1C401.1,322.7,400.7,186.9,400.7,178.9z M165.3,94.2
			c5.2,25.3,22.9,46.2,46.5,55.9c-24.7,2.4-45.5,6.9-45.5,6.9s-21.9-4.9-47.6-7.3C142.4,140.4,159.7,119.5,165.3,94.2z M34.4,335.5
			l-2.4,1V170.9l1-0.7c6.2-3.5,26-14.6,62.5-14.6c32.3,0,59,5.9,66.7,11.1l0.7,0.7v169.8l-2.4-0.7c-11.8-4.2-36.1-11.1-64.9-11.1
			C65.3,325.1,45.5,330.6,34.4,335.5z M300.4,336.5l-2.4-1c-11.1-4.5-30.6-10.4-60.8-10.4c-28.8,0-53.1,6.9-64.9,11.1l-2.4,0.7
			V167.4l0.7-0.7c7.3-5.2,34.4-11.1,66.7-11.1c36.5,0,55.9,11.1,62.5,14.6l1,0.7v165.6H300.4L300.4,336.5z"/>
	</g>
</g>
</svg>
